<svg viewBox="0 0 124.44 144" id="svg2" version="1.1" xmlns="http://www.w3.org/2000/svg"><defs id="defs4"><style type="text/css" id="style6"/></defs><path clip-path="url(#cpMHwxMjQuNDQxfDE0My45OTd8MC4xNDMxMzc=)" id="polyline29" stroke-width="4" fill-opacity=".5" fill="#f0f0f0" stroke="#069" stroke-linecap="round" stroke-linejoin="round" stroke-miterlimit="10" d="M2.285 37.429v69.37l59.82 34.687 59.821-34.687v-69.37L62.105 2.743 2.285 37.429"/><text y="50" transform="rotate(-30 187.628 -42.928)" style="white-space:pre" fill="#069" font-family="sans-serif" font-size="7">www.ardata.fr</text><text x="8.134" y="104.286" transform="rotate(-30 -91.106 64.716)" style="white-space:pre" fill="#069" font-family="sans-serif" font-size="19" font-weight="700" letter-spacing=".3">officer</text><path fill-rule="evenodd" clip-rule="evenodd" d="M20.265 55.608v-1.693c2.78-1.284 5.962-1.194 9.105-1.694.5-.079 1.075-.397 1.607-.483 1.662-.271 3.456.008 4.285-1.089 8.269 2.548 17.498 4.836 25.843 7.499 1.006.321 1.91.831 2.946 1.21 2.451.896 5.103 1.392 7.499 2.177 1.175.385 2.271 1.015 3.347 1.452 1.065.431 2.111 1.111 3.348 1.089-.474-.58-1.887-.312-2.142-1.089 6.391 1.242 10.891 4.193 17.274 5.443-.604-.826-2.788-1.271-4.285-1.693.072-.649.962.16 1.205-.242-5.181-1.651-10.432-3.237-15.935-4.597.197-.518.819.075 1.339 0-1.818-.83-4.028-1.266-6.159-1.814-2.118-.545-4.316-.893-6.294-1.573 1.115-.588 2.513.186 3.616.363 6.115.981 11.985 3.164 18.077 4.96 5.081 1.497 10.146 3.376 14.862 5.322 1.537.634 3.044.798 4.285 1.693a13.247 13.247 0 01-.535 5.565c-1.428-.423-3.14.685-3.75-.605-2.739.313-5.524 1.732-8.703 1.694-.131.48.748.05.67.484-.166 2.229-.567 4.246-.804 6.411-.065.304.613-.292.67.121.715-1.688.25-4.854 1.07-6.773.709.518.226 1.588.134 2.419-.169 1.529.253 3.761-.401 5.08-.79 1.594-4.071 2.402-6.027 2.903-2.513.644-5.256 1.074-7.766.968-2.657 2.761-5.599 5.264-8.972 7.378-7.154 3.965-16.984 9.286-29.056 8.83-4.465-.168-8.993-.625-12.453-2.419-1.909-.99-4.809-3.392-4.553-6.048.552-5.726 6.104-8.752 7.9-13.548-1.039-1.299.166-2.678.134-3.871-.018-.688-.533-1.213-.402-1.935.123-.673.685-1.088.536-2.057-.048-.311-.376-.524-.402-.847-.041-.526.517-1.106 0-1.693.845-.303.442-.982.67-1.815-.31-.566-1.299-.52-1.741-.967-.962-5.003-2.655-10.325-7.766-11.976-.482-1.096-1.703-1.526-2.276-2.54zm15.934-.846c-.043-.164-.191-.231-.134-.484-.159-.297-.506.248-.67-.121.048-.44.272-.722.402-1.088-.493-.079-.823-.305-.669-.967.314-.039.502-.192.937-.121.064-1.186-1.172-.26-1.473 0v.846c-.655.095-.988.479-1.473.726-.398-.049-.556-.941-1.071-.484 1.348.838 1.19 3.039 2.41 3.992-1.184-.074-1.501-.234-2.41-.605-1.013 1.253.65 2.973.535 4.597-.378.746-.886 1.376-.937 2.419 1.567 1.535 2.584 3.632 2.812 5.927.057.572.19 1.181.803 1.21-.182-.574-.217-1.399.134-1.815-.761-.844-.77-2.367-1.473-3.266.283-.213.396-.272.804-.12-.075-.913-.85-3.074 0-4.355.646-.974 2.458-1.215 2.679 0-.213.332-.543.558-.67.968 1.579.251 2.829 1.082 2.276 2.298.507.175.257-.333.67-.242-.111.61.135.708.536 1.331-.328.306-.285-.256-.804-.121-.201.18-.04.689-.535.604-.563-1.272-.507-3.727-2.545-3.266-.128.76 1.102.295.938 1.088.058.457-.65.588-.267.968.739.048.342-.661.535-.847.305-.034.504.029.536.242-.377 1.529.84 2.288 1.473 3.266-.197.815.403 1.331.669 2.057.286-1.013 1.077-.913 1.607-1.573-.239-.306-.821.287-.937-.241.134-.161.126-.45.401-.484.266.001.171.33.536.242.458-.729.272-2.126 0-2.903.274-.29.403-.854-.134-.968-1.017.671.314 2.156-.134 3.024-.255-.052-.336-.261-.669-.242-.146.312-.339.582-.67.726-.252-.216-.619-.327-.803-.605.178-.363.525-.574 1.205-.484.206-1.728-1.268-2.506-1.339-3.991-.599.039-1.104.255-1.339-.242.088-.805-.449-1.046-.67-1.572.182-.038.256-.172.537-.121.765.921 2.002 1.417 2.678 2.419.213-.089-.031-.592.402-.484.281.391-.095 1.375.803 1.21.352-.353-.119-.697 0-1.21-1.545-1.353-3.831-3.303-6.427-2.903.418.134 1.284-.122 1.339.605-.746-.005-1.172.306-1.876.605-.185-.602.618-.713.268-1.089-.864-.092-.358.779-1.071.363-.143.452.332.345.268.726-1.116.731-1.203-.589-1.339-1.33.289-.273.456.099.937 0 1.188-1.04 2.908-.354 4.82 0 .192-.161.192-.686 0-.847-1.112.322-1.967-.316-3.213-.242-.078-.252-.332-.345-.268-.725.441-.248 1.021.237 1.339.483.071-.777.815-.361 1.339-.242.147-.698-.526-.654-.402-1.33.102-.312.427-.42.938-.363.053-.452-.107-.71-.536-.726-.425.614-.827.693-1.473.605.04.448.589.435.402 1.089-.551.367-1.384-.162-1.875.121-.698-.499-.631-1.688-1.339-2.178.387-.416.496-1.084 1.205-1.209.003.24.366.154.268.484.017.459-.606.339-.669.725.296.257 1.177-.014 1.071.605-.386.014-.877-.066-1.071.121v.484c.842-.126 1.696-.243 1.873-.97zm3.347.605c-.102-1.328-1.656-2.369-3.213-2.782-.182 1.583 2.263 1.82 3.213 2.782zm-8.435.847c-.789-1.112-1.804-3.141-3.347-2.783-.036.798.857.757.668 1.694.4.173.456-.099.804.121-.019 1.065.728 1.439.803 2.419.583-.172.616.414.938.121a1.925 1.925 0 01.134-1.572zm-5.223-2.42c.842 2.023 2.614 3.203 3.214 5.444.408-.006.681.109.803.363-.001.24-.365.154-.267.484.285.334.729-.224.803.241-.23.342-.527-.045-.536.363.152.496.594.029 1.071.121.078.562-.183.73 0 1.089 1.302-.153.317-1.695.268-2.42-.41-.087-.394.209-.804.121-.452-.935-1.822-1.875-1.205-3.024h-.803c-.725-1.079-.895-2.66-2.277-3.145a.85.85 0 01-.267.363zm-.401 2.661c-.859-.288-1.519-1.349-2.277-1.33.305 1.065.856 1.4.536 2.54 1.162.301 1.749 1.877 2.946 1.089.409 1.687 1.679 2.595 2.008 4.355.557.058.21-.698.67-.726.101 1.276.282 3.101 1.071 4.112.5-1.129-.304-2.637.268-3.87-.9.006-.767-.92-1.473-1.089-.441-2.151-2.42-3.935-3.08-6.29-.68-.232-.526-1.218-1.339-1.331h-.268c-.802 1.384 1.337 1.547.938 2.54zm10.98-1.33c.419.057.377-.304.535-.484-.315-.328-.898.199-.535.484zm-14.328.726c.412.185.412-.79 0-.605v.605zm15.934.604c.427.409-.007.866.268 1.331 1.123.1-.049-1.166.804-1.21.175.124.493.118.669.242.379-.26.222-.645.134-1.089h-.536c.036.94-.926.226-1.339.726zm-2.008-.12c-.018-.387-.304-.533-.804-.484-.212.597.462.757.804.484zm17.139.241c-.026-.229-.781-.408-.937-.121.245.033.751.436.937.121zm4.151 1.089c-1.298-.402-2.604-1.021-3.883-.846.171.006.185.155.402.121 2.786.87 5.399 1.896 8.168 2.782 1.866.854 3.428 2.627 5.49 2.903-2.582-2.254-6.462-3.809-10.177-4.96zm-17.809.363c.45.037 1.161-.162 1.071.363-.499.218-.715 1.06-.267 1.452.001-.321-.075-.713.267-.726.262.226.041.443 0 .726.474.471.816.285 1.339 0 .558.811.064 2.501 1.339 2.298-.372-.713-.541-1.608-.536-2.661-.61.148-.526-.332-1.071-.242-.214.09.03.593-.402.484-.344-.143-.75-1.434 0-1.451.296.095-.025.748.536.605.124-.211-.005-.65.402-.605.399.002.171.57.401.726.475.065.329-.429.804-.363.176.486.712.647 1.071.967.121-1.078-.891-1.131-1.071-1.935-1.448.168-2.263-.147-3.75-.363-.153.142-.15.427-.133.725zm-9.105.847c.411.185.411-.79 0-.605v.605zm8.57-.484c-.02.34.328.349.669.363.15-.489-.411-.598-.669-.363zm-3.348 3.508c-.143-.113-.042-.446-.402-.363.037.477-.572.37-.535.847.409.114.419.588.937.605.361-.315-.164-.365-.134-.726.135 0 .159-.098.268-.122.274.088.53.379.803.122-.329-.451-.175-.672-.133-1.331-.172-.006-.186-.154-.402-.121-.399.123-.117.862-.402 1.089zm-5.088 0c.063-.38-.168-.495-.402-.605-.26.233-.14.74.402.605zm13.256.604c-.573.102-1.016.053-1.339.121-.321.505.055.851.268 1.21.223-.202.977.076.937-.363-.032-.388-.756.384-.669-.242.387-.215.715-.483 1.339-.484.047.42-.681.46-.267.847.496.086.574-.207 1.07-.121.31.244.716.402.804.847-.119.295-.748.131-.67.604.122.253.395.369.803.363.186-.195.114-.623.402-.726.496.077.409.68.402 1.21-.713.324-1.23.825-1.339 1.694.503-.07.278-.797.803-.847.363.075.334.505.804.484 2.143-1.809-.395-2.567-1.072-4.113-.499-.129-.381.3-.803.242-.422-.345-.381-1.107-.803-1.452h-.402c-.264.084.033.676-.268.726zm25.576.121c.337.244.917-.067.938-.484-.389.093-.771.192-.938.484zm-28.522.726c.285-.293-.298-.534-.535-.725-.308.313-.016.818.535.725zm38.967 2.42c-2.389-.888-6.207-3.358-8.303-3.024-.438.07-.881.333-1.071.846.561.219 1.395-.238 2.01-.362 3.222 1.241 6.51 2.424 9.774 3.628.418.037-.34-.35.134-.363 1.319.337 2.574 1.144 4.017 1.452.59.126 1.253-.031 1.875.121 2.615.638 4.386 2.554 7.097 1.693.482.33.857.758 1.34 1.089 2.945.282 4.343 1.964 6.695 2.783-.843-1.376-3.07-1.501-4.017-2.783 1.457.095 2.082.942 3.481 1.089-1.081-1.685-4.657-1.115-5.758-2.782-.587.001-1.044-.744-1.606-.363.555.467 1.876.882 1.874 1.451-4.886-1.471-10.738-2.718-15.398-3.991.328.014.028.399-.134.362-.56-.561-1.171-.534-2.01-.846zm-10.579-2.42c-.273-.278-.802-.324-1.339-.362-.037.51 1.173 1.157 1.339.362zm-30.262 6.774c-.409.115-.42.588-.938.605-.145-.31.407-.576 0-.726-.616.447-1.406-.139-2.008-.363.077-.252.332-.345.268-.725-.558-.276-1.064.988-.67 1.572 3.629-.73 4.112 7.04 6.16 3.75-.236-.109-.221-.445-.536-.484-.025.34-.233.516-.669.484-.711-.245-.811-1.042-.804-1.935-.281-.316-.522-.103-.803-.242.211-.594-.265-.567-.536-.726.023-.181-.048-.447.134-.484.288.143.321.517.937.363-.177-1.058-.571-1.672 0-2.54-.923-.082-.787.478-.937.847-.55-.148-.077-.468 0-.726-.299-.351-1.167.351-1.339-.242-.065-.381.411-.274.268-.726-.465-.31-1.16.262-1.607 0 .006-.359-.398-.966.134-1.089.18.08.249.259.268.484 1.534-.066 1.543.678 2.41 1.33.035-.17.294-.138.402-.242-.384-1.088-1.367-2.434-2.946-1.693v-.605c.233.009.416-.028.535-.121-.134-.927.01-2.105-.669-2.54-.451.659.503.96.268 1.814-.372.309-.967.418-1.741.363-.064.38.19.473.268.726.502.091.292-.462.669-.484.057.231.383.219.268.605-.106.267-.629.157-.669.484.917 1.43 2.165 2.559 3.883 3.266zm3.481-5.927c.15 1.073.713 1.776 1.205 2.54-.181.039-.256.172-.535.121.398.824-.398 1.354 0 2.178.378.1.346-.17.669-.121.22-.326-.182-.621.134-.967.532.247 1.001-.092.937-.726-.607-.065-.357.644-.937.604-.113-.707.399-.849.536-1.33-.091-.321-.743-.136-.669-.605.491-.089.744.298 1.071 0-.001-.851-1.34.249-1.205-.725.433-.052 1.158.159 1.205-.242-.41-.315-1.666.135-1.741-.484.806-.078 2.076.262 2.143-.483-.581-.052-1.961.14-2.813.24zm37.36.242c-.411-.073-.698-.257-1.072-.363.011.36.853.591 1.072.363zm-10.713.725c.659.285.772-.98.267-.967.087.481-.354.486-.267.967zm-38.162-.725c.21.94 1.078 1.927.937 2.782-.276-.033-.126-.451-.402-.484-.35.88-.085 1.832-.268 2.662.046.623 2.368 1.293 2.544.241-.556-.21-.736.532-1.071.121.098-.355.418-.51.938-.483.055-.574-.066-.99-.268-1.33-.371-.121-.379.686-.67.241.039-.449.709-.327.67-.847-.633-1.049-1.194-2.781-2.41-2.903zm52.489 1.331c-1.041-.391-2.404-1.133-3.481-1.089 1.109.329 2.356 1.176 3.481 1.089zm-2.41-.122c-.333.086-.55-.532-.803-.121.142.087.617.473.803.121zm-35.752.727c.53.139.712-.563.268-.605-.057.23-.382.218-.268.605zm-3.214 4.837c.91.056.575-1.012 1.339-1.088.41.194.661.532.804.967 1.472-.44 1.613.506 2.41.968.31-.249.093-1.044 0-1.331-.509-.206-1.608-.038-2.277-.362-.158-.078-.24-.605-.402-.726-.267-.2-.648-.051-.803-.121-.896-.403-.331-1.215-.804-1.573-.613 1.037.639 2.156-.267 3.266zm38.966-2.54c-.356.091-1.181.882-.669.968 1.262-.008 1.661-1.778.268-1.573.264.084.356.324.401.605zm-36.02.968v-.484h-.401c-.038.316.049.521.401.484zm-4.418.605c-.237-.108-.171-.491-.669-.363.007.793.046 1.371.134 1.815.967-.008.991-.519 1.071-1.089.797.187.962-.675.669-1.088h-.402c-.048.439-.316.681-.803.725zm49.277 2.178c-.529-.693-1.251-1.211-2.009-1.694.546.674 1.037 1.402 2.009 1.694zm-57.312-1.331c.083.611.686.752.67 1.452-.133.323-.816.149-.804.604.793 1.017 2.491 1.217 3.884 1.694.139-1.175-.157-1.956-.536-2.661-.065-.381.614-.091.67-.363-1.264-.303-2.641-.653-3.884-.726zm9.641 2.661c.706-1.145 2.457-1.269 4.017-1.089-1.003-1.601-5.475-.898-4.017 1.089zm60.926 1.572c.876-1.302-.979-1.536-1.875-1.935-1.088-.486-2.064-1.258-2.945-1.573-.03-.095-.113-.14-.268-.121.975 1.861 2.954 2.816 5.088 3.629zm-62.666-2.539c.517.094.776-.741.267-.847-.028.352-.525.599-.267.847zm29.727.241c-.11.342.189.314.134.605-1.066.549-2.501.016-3.214.846.881.051 2.848.086 3.614-.363.979.488 2.469 1.157 3.75.968-.774-.722-3.172-.454-2.678-1.936-.589-.125-1.076-.233-1.606-.12zm20.754.121c-.065.381.241.427.134.847.74.14 1.397-.397 2.411-.363-.32-.66-1.671-.686-2.545-.484zm1.339 1.573c-.365.327.347.3.268.725-.239.187-.671.201-.536.726.783.062.562-.782 1.206-.847 1.393.003 2.478.889 3.748.605.115-.588-.869-.184-.803-.726.648-.263 1.694 1.091 2.544.241-.558-.262-1.701.006-1.607-.846 1.061-.19 1.73.61 2.544.242-1.943-.92-5.429-1.09-7.364-.12zm-55.301 1.451c-1.344-.883-3.14-1.357-4.687-2.057.467 1.596 2.71 2.228 4.687 2.057zm12.72-.726c-.028.7.308 1.227-.134 1.694-.285-.468-1.049-.505-1.071-1.209-.534-.079-.384.46-.402.846.574.168 1.089.387 1.607.605.172-.329.686-.349.803-.726-.264-.084-.356-.322-.401-.605.191-.028.226-.198.401-.241.29.891 3.026-.121 2.143 1.21.106.507.521.373.267.967.323-.049.291.221.67.121.093-.649-.663-.53-.67-1.088a.649.649 0 01.402-.363c.232.37 1.092.926 1.339.241-.767-.314-1.98-.227-1.874-1.33-.512-.185-1.227.073-1.875.121-.03-.228.151-.267.134-.484-.656-.108-.629.398-1.339.241zm50.215.363c.649-.088 1.24.333 1.605.122-.031-.91-1.408-.833-1.605-.122zm-67.489.363c.175.609 1.319.341 1.339 1.088.956-.233 1.979.344 2.277 1.089-.266.002-.171.33-.536.242-.839-.463-2.147-.873-3.08-1.573-.638 1.59 2.378 1.851 3.75 2.42.038-.731-.108-1.629.134-2.178-1.449-.344-2.519-1.03-3.75-1.572-.042.164-.19.231-.134.484zm23.166.242c-.003-.527-1.331-.487-1.607-.363.543.079 1.16.583 1.607.363zm-3.616.363c-.235.069-.786-.147-.803.121.306.092.835.455.803-.121zm0 1.209c.565.096.458-.648 0-.604v.604zm-.669.363c-1.346-.258-2.643-.653-4.285-.363 2.342.626 5.273 1.364 8.167 1.089-.914.042-1.915-.618-3.347-.484-.288-.133.358-.722-.402-.605-.365-.296.474.363-.133.363zM33.119 79.68c-.292-.022-.426.099-.402.363.348.09.453.397.804.484.899-.807 1.654.134 2.812.121-.948-.877-2.464-1.242-3.75-1.814-.036.476.573.369.536.846zm34.948.484c1.659.243 4.562.49 6.161 0-2.171-.099-4.195-.319-6.161 0zm-22.629.12c1.9.951 6.57 1.719 9.507 1.331-2.941-.571-6.394-1.317-9.507-1.331zm33.61 0c.078 1.038-.721 1.285-1.071 1.936-.145 1.422.182 2.416.937 3.024 1.124-.347 2.764.065 3.482-.847-.609-.512-.807.684-1.339.242.236-.391.324-.917 1.071-.847-.875-1.088.485-2.855-.804-3.629-.912-.034-1.785.115-2.276.121zm-1.474.485c.265.224.986.18.804-.363-.474-.065-.69.102-.804.363zm-43.652.484c.08.25-.165.795.135.847.473-.299.886-.651.937-1.33h-.401c.093.446-.213.533-.671.483zm.537 1.451c-.335-.563-.961-.22-1.339-.604.112-.141.176-.324.134-.605-.41.088-.394-.209-.804-.121-.073.429.474.297.402.726-.42-.058-.547.151-.67.362.892.569 2.392.947 3.616.847-.195-.473.17-1.1.134-2.056-.266-.002-.171-.33-.536-.242.339.835-.13 1.54-.937 1.693zm16.067.484c.049-.874-1.14-1.195-1.874-.967.095.78 1.235 1.055 1.874.967zm-3.883-1.089c-.516-.645-1.939-.454-2.679-.363.436.09.408.6.67.847.17-.29.436-.492.937-.484.305.168.519.419.804.605.764-.578 1.179.197 2.008.241.032-.173.22-.204.268-.363-.34-.491-1.306-1.033-2.008-.483zm4.017.484c.066.855 1.222 1.001 2.143.725.574.57 1.269.395 2.142.242.155.144.152.428.134.726.469-.06.872-.181 1.473-.121-.065-.381.41-.274.268-.726-.645.671-1.65.228-2.009-.362-1.427.5-2.724-.678-4.151-.484zm22.496.242c.575.31 2.3.443 2.678-.121-.621-.353-2.219-.372-2.678.121zm-19.282 1.331c-2.819-.237-5.577-1.171-8.436-.968 2.478.471 5.889 1.362 8.436.968zm-21.826-.363c1.225.384 2.429.79 3.749 1.088v-.604c-1.295.063-2.11-.766-3.481-.968-.07.179-.198.305-.268.484zm15.934.725c.687.089 2.349.372 2.678 0-.557-.35-2.224-.617-2.678 0zm-15.265 6.653c-.355-.323-.637.039-.937.121-.083.511.728.612.402.968-.197.426-1.298.037-1.339.604.34.015.519.177.535.484-.544.556-.681 1.481-1.74 1.573-.097.37.231.355.133.726-.191.028-.226.199-.401.242-.654.091-1.04-.517-1.473-.242.872.909.089 2.919-1.339 2.419.354-.446.868-.748.937-1.452-.15-.025-.208-.133-.268-.241-.534-.12-.403.362-.937.241.222-.711.039-1.074-.268-1.572.474-1.874 1.794-3.616 2.143-5.201-1.961 1.91-4.698 6.37-1.741 8.83.422.059.472-.217.937-.121.072.428-.474.297-.402.726.41.087.488-.124.804-.122 2.526-4.169 5.814-7.649 8.704-11.491.74-.137 1.101-.617 1.205-1.33a80.295 80.295 0 01-5.356-1.936c-.857.954.428 1.895-.67 2.54.448.588.96-.281 1.473-.121-.237-.321-.502-1.09-.268-1.451 1.248.023.389 1.281 1.071 1.693.223-.242-.012-.897.267-1.088.506-.014.721.237.804.604-.611.336-1.12.763-1.875.967-.317.852.417 1.232-.134 1.574-.685-.301-.038-1.231-.803-1.574-.309.257.403 1.597-.268 1.815-1.311.029-.454-1.171-1.607-1.21.457 1.028-1.367.914-.268 1.452.076-.295.115-.622.536-.605.69.555.219 1.595 0 2.298-.4-.144-.455-.033-.803.122.346.643-.105 1.265-.402 1.693-1.117.113-.271-.958-1.071-.967-.336.44.82.901.268 1.573.199.142.598.104.535.484.519-.135 1.34 0 1.339-.605-.599.017-.744.216-.803-.362-.002-.487 1.073.002 1.071-.485-.275-.195-.338-.582-.536-.847.353-.531.79.191 1.206-.121-.117-.299-.262-.938 0-1.21.728.514 1.679-.781 2.142-.121-.498.276-.559.946-1.071 1.21-.153-.38.211-.294.268-.484zm13.257-5.322c1.479-.178 4.302.434 6.025.242.554.395.234.571-.134.967.473.064.599.354 1.071.121 0-.523-.31-.768-.267-1.33-2.387-.877-5.49-.498-7.901-1.452-.014.861.947.838 1.206 1.452zm18.211-.968c2.95.705 8.859.827 11.783 0-4.032-.333-8.252-.459-11.783 0zm26.78.605c.432-.175.961-.262.938-.847-.518.098-.596.592-.938.847zm-44.456 1.209c1.524.138 4.041.754 5.222.242-2.33-.866-5.471-.112-7.364-1.451-.113 1.205.949 1.103 2.142 1.209zm21.96.606c-.302-.384-1.413-.294-1.607.121.824.289 1.802-.305 2.142.363-.208.451-.603.545-1.205.363.018.676.614.084 1.205.242.138-.481.338-.905 1.072-.848-.014-.665-1.254-.547-1.607-.241zm-37.626 0c.043.284.211.454.134.847.342-.131.638.367.803 0-.742-.055-.481-.592-.134-.847-.421.06-.523-.264-.803 0zm39.769.12c.228.18 1.239.52 1.205-.121-.398.005-1.071-.359-1.205.121zm-26.647 1.573c.628.123.603-.343.803-.604 1.292-.293 2.267.379 3.616.121.137.36.255.737.669.846 1.542-.577 3.454-.262 5.49-.121-2.977-1.271-8.041-1.571-11.515-1.33.812-.089.416.914.937 1.088zm25.575-.484c1.01-.371 2.316.253 3.081-.363-1.038.11-2.282-.378-3.081.363zm3.884-.242c.016.267.569.052.804.122.209-.416-.897-.575-.804-.122zM59.498 99.154c1.078-.389 2.164-1.255 3.615-.604.329-.295-.099-.524 0-.967 1.938-.467 3.154-1.586 4.687-2.42-.744-.002-.346-1.21.267-1.088.549.299.042.763-.133 1.088 1.666-.833 3.192-1.793 4.284-3.145-.532-.105-.673-.105-1.205 0 .177-1.031-.716-1.312-.134-2.057-2.806-.36-6.215-.574-9.106-.483.92.875 2.585 1.649.938 2.902-1.026-.438-1.053.843-1.741 1.089.219.245.611.334.669.725-.79.053-1.356.307-1.339 1.089.342-.064.469-.161.669.121-.014.537.375.71.268 1.331-.413.084-.257.084-.67 0-.24.719.157.6.402 1.088-.22.61-1.574.833-1.471 1.331zM45.84 89.841c-.354-.037-.44.167-.402.484.711-.038 1.185.139 1.071.847-.622.039-1.203.039-1.339-.363-.277.366-1.558.509-.134.484.032.172.22.204.268.363.099.443-.329.672 0 .967.926.151.294-1.105.937-1.209.547-.132.661.129.804.362-.165-.551.469-.382.535-.725-.828.063-.35-1.09.402-.726-.079.314.054.435.402.363.053-.536-.666-1.006-.67-1.089.003.781-1.644.71-1.874.242zm30.128.363c.715.59-1.383 1.312-1.072 1.935.728-.835 1.81-1.35 2.144-2.54-.404.161-.792.334-1.072.605zm-25.977 1.693c.59.049.545-.475.668-.847-.613-.01-.403-.765-.668-1.089-.479.576-.412 1.361 0 1.936zm-21.157-1.209c.434-.069.673.037.804.241-.065-.38.613-.091.669-.363-.521-.159-1.278-.214-1.473.122zm32.538.967c.29.101.457.314.938.242-.078-.393.091-.563.134-.847-.631-.046-1.15.01-1.072.605zm-5.757.484c.099-.373-.368-.233-.268-.604-.194.066-.692-.142-.67.121.391.09.665.286.938.483zm17.943.121c.351.035.575-.043.535-.363-.35-.034-.576.044-.535.363zm.267.846c.209-.174.467-.304.537-.604-.325 0-.857.424-.537.604zm-1.473.243c.342-.015.52-.176.537-.484-.343.014-.52.176-.537.484zm-44.588 1.089c-.021.3.209.374.267.604.315.002.394-.209.803-.121v-.484c-.482-.042-.645-.185-1.07.001zm-.537 1.451c.273-.117.29-.464.268-.847-.666-.204-.992.87-.268.847zm32.673.604c.31-.039.513.02.669.121-.18-.361-.414-.674-.536-1.088.03.389-.236.512-.133.967zm-16.069 1.694c-.172-.166-.582-.12-.937-.121-.165.402.905.296.937.121zm-18.077.847c-.046-.281-.087-.567-.535-.484-.171.477.366.314.535.484zm35.485.242c.347.253 1.141.135 1.071-.363-.357-.308-1.171-.353-1.071.363zm-34.681.725c.022-.14.211-.131.401-.121.021-.583-.693-.502-1.071-.726.112.384.391.615.67.847zm33.208-.241c.334.242 1.101.099 1.071-.363-.347-.253-1.141-.136-1.071.363zm-1.473.967c.499.048.785-.097.803-.484h-.803v.484zm-10.177 1.089c-.067.476.931.22.803-.121-.329-.016-.645-.018-.803.121zm-9.105.725c2.036.061 5.839.277 8.034-.483-2.3.043-5.65.119-8.034.483zm11.382.484c.304-.168.519-.418.804-.604h-.537c.037.248-.502.575-.267.604zm-2.679.363c.586-.156 1.339-.161 1.741-.484-.677-.498-1.453-.049-1.741.484zm-10.98-.241c.353.126.822.144 1.339.121-.007-.587-1.247-.298-1.339-.121zm1.607.12c1.291.153 2.866.252 4.151.242 1.35-.011 2.73.18 3.749 0-2.492-.55-5.472-.314-7.9-.242zm3.348 1.09c-1.448-.552-4.051-.475-5.356-.484 1.246.504 3.904.965 5.356.484zm1.339.604c.639.094.862-.189 1.473-.121-.072-.473-1.503-.283-1.473.121z" fill="#069" stroke-linecap="round" stroke-linejoin="round" stroke-miterlimit="10"/></svg>